<svg width="43" height="33" viewBox="0 0 43 33" fill="none" xmlns="http://www.w3.org/2000/svg">
<g clip-path="url(#clip0_4205_208)">
<path d="M42.5952 21.2364V20.7274H42.4609L42.3054 21.0767L42.1508 20.7274H42.0156V21.2364H42.1111V20.853L42.2564 21.1838H42.3553L42.5006 20.8521V21.2364H42.5952ZM41.7426 21.2364V20.8146H41.9146V20.7297H41.4751V20.8146H41.6471V21.2364H41.7417H41.7426Z" fill="#0099DF"/>
<path d="M27.32 23.4198H15.6902V2.8031H27.32V23.4198Z" fill="#6C6BBD"/>
<path d="M16.4284 13.1115C16.4284 8.92928 18.4135 5.20385 21.5047 2.80307C19.1648 0.983038 16.2705 -0.00469821 13.2907 -0.000229041C5.95012 -0.000229041 0 5.87 0 13.1115C0 20.3531 5.95012 26.2235 13.2904 26.2235C16.2704 26.228 19.1647 25.2401 21.5047 23.42C18.4135 21.0192 16.4284 17.2938 16.4284 13.1115Z" fill="#EB001B"/>
<path d="M43.01 13.1118C43.01 20.3533 37.0599 26.2238 29.7195 26.2238C26.7393 26.2281 23.8448 25.2403 21.5044 23.4203C24.5959 21.0195 26.5818 17.2941 26.5818 13.1118C26.5818 8.92953 24.5959 5.2043 21.5046 2.80353C23.8449 0.983532 26.7394 -0.00425398 29.7195 1.37713e-05C37.0599 1.37713e-05 43.0102 5.87024 43.0102 13.1118" fill="#0099DF"/>
<path d="M31.2552 29.2462C31.4098 29.2462 31.6321 29.2755 31.8019 29.3412L31.5654 30.0549C31.4128 29.9947 31.2497 29.9649 31.0853 29.9673C30.5833 29.9673 30.3328 30.2873 30.3328 30.8627V32.8151H29.5646V29.3331H30.3253V29.7552C30.5248 29.4492 30.8129 29.2449 31.2558 29.2449M28.4178 30.0243H27.1629V31.5973C27.1629 31.9466 27.288 32.1799 27.6724 32.1799C27.8719 32.1799 28.1229 32.1142 28.351 31.9831L28.5724 32.6308C28.329 32.7984 27.9455 32.901 27.6133 32.901C26.7047 32.901 26.3878 32.42 26.3878 31.6113V30.0241H25.671V29.3331H26.3876V28.277H27.1616V29.3331H28.4165V30.025L28.4178 30.0243ZM18.5904 30.7666C18.6723 30.264 18.9817 29.9212 19.5284 29.9212C20.0229 29.9212 20.3405 30.2273 20.4216 30.7666H18.5898H18.5904ZM21.2194 31.0726C21.2119 29.9872 20.5314 29.2445 19.5424 29.2445C18.5089 29.2445 17.7854 29.9868 17.7854 31.0726C17.7854 32.1789 18.5379 32.8999 19.5947 32.8999C20.1261 32.8999 20.6129 32.7691 21.0414 32.4122L20.6645 31.8512C20.3695 32.0845 19.9926 32.2156 19.6385 32.2156C19.144 32.2156 18.6938 31.9897 18.5831 31.3636H21.2037C21.2112 31.2686 21.219 31.1744 21.219 31.0726M24.5926 30.2218C24.3786 30.0901 23.9435 29.9225 23.493 29.9225C23.0723 29.9225 22.8212 30.0759 22.8212 30.331C22.8212 30.5643 23.0865 30.6294 23.4187 30.6729L23.7803 30.7238C24.5485 30.8338 25.0133 31.1539 25.0133 31.7657C25.0133 32.4285 24.4227 32.9019 23.4042 32.9019C22.8278 32.9019 22.2964 32.7559 21.8756 32.4499L22.2372 31.8597C22.4952 32.0565 22.8803 32.224 23.4118 32.224C23.9357 32.224 24.2163 32.0716 24.2163 31.8014C24.2163 31.6054 24.0168 31.4953 23.596 31.4378L23.2344 31.3869C22.4443 31.2769 22.0158 30.9276 22.0158 30.36C22.0158 29.6682 22.5922 29.2456 23.4853 29.2456C24.0465 29.2456 24.556 29.3698 24.9245 29.6099L24.5926 30.2218ZM34.0616 29.9649C33.9108 29.9638 33.7613 29.9915 33.6213 30.0466C33.4896 30.0992 33.3701 30.1775 33.2697 30.2767C33.1688 30.3782 33.0895 30.4987 33.0365 30.6309C32.9238 30.9235 32.9238 31.2468 33.0365 31.5394C33.0895 31.6717 33.1688 31.7922 33.2697 31.8938C33.37 31.9931 33.4896 32.0713 33.6213 32.1239C33.9047 32.2331 34.2193 32.2331 34.5028 32.1239C34.6351 32.0716 34.7552 31.9933 34.856 31.8938C34.9582 31.7927 35.0387 31.6722 35.0925 31.5396C35.2052 31.247 35.2052 30.9237 35.0925 30.6311C35.0387 30.4985 34.9582 30.3779 34.856 30.2767C34.7552 30.1773 34.635 30.099 34.5028 30.0466C34.3628 29.9914 34.2132 29.9637 34.0624 29.9649M34.0624 29.2456C34.3229 29.2429 34.5814 29.2907 34.8231 29.3864C35.0486 29.4748 35.2542 29.6063 35.4281 29.7732C35.5994 29.9388 35.7353 30.1366 35.8278 30.355C36.0204 30.8232 36.0204 31.3471 35.8278 31.8154C35.7353 32.0339 35.5994 32.232 35.4281 32.3979C35.254 32.5646 35.0484 32.696 34.8231 32.7848C34.3337 32.9715 33.7914 32.9715 33.302 32.7848C33.0775 32.6961 32.8729 32.5647 32.7 32.3979C32.5297 32.2315 32.3945 32.0335 32.302 31.8154C32.1094 31.3471 32.1094 30.8232 32.302 30.355C32.3946 30.1357 32.5309 29.9369 32.7027 29.7706C32.8746 29.6042 33.0786 29.4735 33.3026 29.3864C33.5444 29.2907 33.8028 29.2429 34.0633 29.2456M14.104 31.0737C14.104 30.4618 14.5103 29.9592 15.1747 29.9592C15.8094 29.9592 16.2379 30.4402 16.2379 31.0737C16.2379 31.7072 15.8094 32.1873 15.1749 32.1873C14.5106 32.1873 14.1042 31.6856 14.1042 31.0737M16.9613 31.0737V29.3331H16.194V29.7552C15.9498 29.4417 15.5813 29.2449 15.0792 29.2449C14.0902 29.2449 13.3147 30.0084 13.3147 31.0731C13.3147 32.1377 14.0887 32.9012 15.0792 32.9012C15.5813 32.9012 15.9498 32.7044 16.194 32.3909V32.8136H16.9613V31.0731V31.0737ZM12.6353 32.8143V30.6298C12.6353 29.8069 12.1038 29.2534 11.2477 29.246C10.7973 29.2386 10.3316 29.3768 10.0072 29.8653C9.76379 29.4793 9.37915 29.246 8.84015 29.246C8.46411 29.246 8.09474 29.3552 7.80664 29.7628V29.3331H7.03931V32.8143H7.81331V30.8843C7.81331 30.2799 8.15301 29.959 8.67696 29.959C9.18651 29.959 9.44516 30.2867 9.44516 30.8769V32.8143H10.2192V30.8843C10.2192 30.2799 10.5741 29.959 11.0828 29.959C11.6076 29.959 11.8585 30.2867 11.8585 30.8769V32.8143H12.6325H12.6353ZM36.8349 32.5523V32.6372H36.9155C36.9306 32.6377 36.9455 32.6339 36.9585 32.6264C36.964 32.6229 36.9684 32.6181 36.9714 32.6124C36.9744 32.6067 36.9758 32.6003 36.9755 32.5939C36.9758 32.5876 36.9744 32.5814 36.9714 32.5758C36.9684 32.5702 36.9639 32.5656 36.9585 32.5623C36.9457 32.5544 36.9306 32.5506 36.9155 32.5515L36.8349 32.5523ZM36.9159 32.4923C36.9503 32.4902 36.9843 32.5 37.0122 32.5199C37.0234 32.5289 37.0323 32.5404 37.0382 32.5535C37.044 32.5665 37.0467 32.5807 37.046 32.595C37.0465 32.6072 37.0443 32.6194 37.0396 32.6307C37.035 32.6421 37.0279 32.6523 37.0189 32.6607C36.9973 32.679 36.9703 32.6901 36.9419 32.6923L37.0494 32.8132H36.9667L36.8678 32.6932H36.8357V32.8132H36.765V32.4923H36.9159ZM36.8944 32.9233C36.9307 32.9236 36.9667 32.9164 37 32.9021C37.0321 32.8884 37.0613 32.8689 37.086 32.8446C37.1108 32.8203 37.1305 32.7915 37.1443 32.7598C37.1583 32.7264 37.1655 32.6907 37.1655 32.6547C37.1655 32.6186 37.1583 32.5829 37.1443 32.5496C37.1303 32.518 37.1106 32.4892 37.086 32.4648C37.0614 32.4404 37.0322 32.4212 37 32.4081C36.9667 32.3938 36.9307 32.3866 36.8944 32.3869C36.8575 32.3866 36.8209 32.3938 36.7869 32.4081C36.754 32.4209 36.7241 32.4402 36.699 32.4648C36.661 32.5033 36.6353 32.5519 36.6251 32.6047C36.6149 32.6575 36.6206 32.7121 36.6416 32.7617C36.6547 32.7935 36.6742 32.8224 36.699 32.8465C36.7243 32.8711 36.7541 32.8906 36.7869 32.904C36.8209 32.9183 36.8575 32.9255 36.8944 32.9252M36.8944 32.3101C36.9421 32.3098 36.9893 32.3191 37.0331 32.3377C37.0757 32.3548 37.1145 32.38 37.1473 32.4119C37.1798 32.4433 37.2056 32.4807 37.2234 32.522C37.2418 32.5644 37.2513 32.6101 37.2513 32.6563C37.2513 32.7024 37.2418 32.7481 37.2234 32.7905C37.2054 32.8314 37.1796 32.8685 37.1473 32.8997C37.1144 32.9316 37.0756 32.9571 37.0331 32.9748C36.9893 32.9934 36.9421 33.0028 36.8944 33.0024C36.8471 33.0027 36.8003 32.9938 36.7565 32.9762C36.7127 32.9586 36.6729 32.9327 36.6392 32.8999C36.6069 32.8687 36.5811 32.8316 36.5631 32.7907C36.5447 32.7483 36.5353 32.7027 36.5353 32.6566C36.5353 32.6105 36.5447 32.5648 36.5631 32.5224C36.5809 32.4811 36.6067 32.4437 36.6392 32.4124C36.6718 32.3802 36.7106 32.355 36.7534 32.3381C36.798 32.3196 36.846 32.3102 36.8944 32.3106" fill="#231F20"/>
</g>
<defs>
<clipPath id="clip0_4205_208">
<rect width="43" height="33" fill="white"/>
</clipPath>
</defs>
</svg>
