<svg width="53" height="27" viewBox="0 0 53 27" fill="none" xmlns="http://www.w3.org/2000/svg">
<path d="M6.68893 9.0813L7.00259 9.15901C4.67682 14.2763 4.83345 19.3414 11.5895 19.3414C23.0236 16.4525 23.0236 16.4525 30.7986 14.302C29.3612 14.2763 27.9239 14.2501 26.4995 14.2244C26.2773 12.7347 26.0552 11.2448 25.8461 9.75493L24.1996 14.1076C23.0888 14.1466 21.978 14.1855 20.8674 14.2241C22.4747 9.50862 24.0821 4.80602 25.6894 0.103428C26.8393 0.116356 27.9892 0.129285 29.1391 0.155276C28.1983 2.96641 28.1983 2.96641 28.303 3.12182C29.1656 2.13724 30.0411 1.15265 30.9163 0.16807C34.2221 0.103697 37.5282 0.0517139 40.8343 0C40.586 0.841966 40.3506 1.68407 40.1156 2.52617C38.9264 2.59094 37.7373 2.65572 36.5613 2.7205C35.8295 4.87093 35.8295 4.87093 35.7902 5.35036C36.8355 5.41514 37.8811 5.47992 38.9396 5.55762L37.9986 8.1615C36.8487 8.26519 35.6987 8.36889 34.5619 8.47245C34.2352 9.44397 33.9083 10.4156 33.5949 11.4002L36.8487 11.5168C36.7312 11.8926 36.6136 12.2811 36.4957 12.6699C36.7179 12.6699 36.94 12.6699 37.1753 12.6828C42.4416 11.2966 47.7207 9.9234 53 8.55029C39.632 14.3021 26.2641 20.0541 12.8958 25.819C-2.94368 30.9804 -3.17746 18.0893 6.68893 9.0813ZM7.44679 14.2244L12.3472 0H15.9668L16.0452 5.16896C16.6594 3.47183 17.2737 1.78776 17.8877 0.103697C18.933 0.064777 19.9915 0.0258569 21.0498 0C19.4686 4.74138 17.9006 9.48289 16.3324 14.2244H12.6997C12.6606 12.5531 12.6213 10.882 12.5951 9.22392C11.1444 13.1491 11.1444 13.1491 10.8831 14.2244H7.44679ZM16.8816 14.2244C18.4889 9.52181 20.1092 4.81922 21.7296 0.129419H25.1794C23.5068 4.78016 21.8472 9.43105 20.1876 14.0818C19.077 14.1207 17.9794 14.1726 16.8816 14.2244ZM29.766 12.7863C29.1258 7.38417 29.1258 7.38417 29.1258 6.12755C33.7257 0.816109 33.7257 0.816109 34.0392 0.699484L29.766 12.7863Z" fill="#E09142"/>
</svg>
