<svg width="50" height="38" viewBox="0 0 50 38" fill="none" xmlns="http://www.w3.org/2000/svg">
<g clip-path="url(#clip0_4201_503)">
<path d="M49.5292 24.4547V23.8685H49.3731L49.1923 24.2708L49.0125 23.8685H48.8553V24.4547H48.9663V24.0132L49.1353 24.3941H49.2503L49.4192 24.0121V24.4547H49.5292ZM48.5379 24.4547V23.9689H48.7379V23.8712H48.2268V23.9689H48.4268V24.4547H48.5368H48.5379Z" fill="#0099DF"/>
<path d="M31.7674 26.9688H18.2444V3.22839H31.7674V26.9688Z" fill="#6C6BBD"/>
<path d="M19.1028 15.0981C19.1028 10.2822 21.411 5.99235 25.0055 3.22781C22.2847 1.13202 18.9192 -0.00537307 15.4543 -0.000226753C6.91874 -0.000226753 0 6.75943 0 15.0981C0 23.4369 6.91874 30.1968 15.454 30.1968C18.9191 30.202 22.2845 29.0644 25.0055 26.9685C21.411 24.204 19.1028 19.9141 19.1028 15.0981Z" fill="#EB001B"/>
<path d="M50.0116 15.0984C50.0116 23.4371 43.0929 30.1971 34.5576 30.1971C31.0922 30.2021 27.7265 29.0646 25.0051 26.9688C28.5999 24.2043 30.9091 19.9144 30.9091 15.0984C30.9091 10.2825 28.5999 5.99283 25.0054 3.22831C27.7266 1.13255 31.0923 -0.00489852 34.5576 1.58578e-05C43.0929 1.58578e-05 50.0119 6.75967 50.0119 15.0984" fill="#0099DF"/>
<path d="M36.3433 33.6781C36.5231 33.6781 36.7816 33.7118 36.979 33.7875L36.704 34.6093C36.5266 34.54 36.3369 34.5057 36.1458 34.5084C35.562 34.5084 35.2708 34.8769 35.2708 35.5395V37.7877H34.3775V33.7781H35.262V34.2642C35.494 33.9118 35.829 33.6766 36.344 33.6766M33.044 34.5741H31.5848V36.3854C31.5848 36.7876 31.7303 37.0563 32.1773 37.0563C32.4092 37.0563 32.7011 36.9806 32.9663 36.8296L33.2238 37.5755C32.9408 37.7685 32.4948 37.8866 32.1085 37.8866C31.052 37.8866 30.6835 37.3327 30.6835 36.4015V34.5738H29.8501V33.7781H30.6833V32.562H31.5833V33.7781H33.0425V34.5749L33.044 34.5741ZM21.6168 35.4288C21.712 34.8501 22.0718 34.4553 22.7075 34.4553C23.2825 34.4553 23.6518 34.8078 23.7461 35.4288H21.6161H21.6168ZM24.6738 35.7812C24.6651 34.5313 23.8738 33.6761 22.7238 33.6761C21.522 33.6761 20.6808 34.5309 20.6808 35.7812C20.6808 37.0551 21.5558 37.8853 22.7846 37.8853C23.4025 37.8853 23.9685 37.7347 24.4668 37.3238L24.0285 36.6778C23.6855 36.9464 23.2473 37.0974 22.8355 37.0974C22.2605 37.0974 21.737 36.8372 21.6083 36.1163H24.6555C24.6642 36.0069 24.6733 35.8984 24.6733 35.7812M28.5961 34.8015C28.3473 34.6498 27.8413 34.4568 27.3175 34.4568C26.8283 34.4568 26.5363 34.6335 26.5363 34.9272C26.5363 35.1959 26.8448 35.2708 27.2311 35.3209L27.6516 35.3795C28.5448 35.5062 29.0853 35.8748 29.0853 36.5793C29.0853 37.3425 28.3985 37.8877 27.2142 37.8877C26.544 37.8877 25.9261 37.7195 25.4368 37.3672L25.8573 36.6875C26.1573 36.9142 26.6051 37.107 27.2231 37.107C27.8323 37.107 28.1585 36.9315 28.1585 36.6204C28.1585 36.3947 27.9266 36.2679 27.4373 36.2017L27.0168 36.1431C26.0981 36.0164 25.5998 35.6142 25.5998 34.9606C25.5998 34.164 26.2701 33.6774 27.3085 33.6774C27.9611 33.6774 28.5535 33.8204 28.982 34.0969L28.5961 34.8015ZM39.6066 34.5057C39.4312 34.5044 39.2574 34.5363 39.0946 34.5997C38.9415 34.6603 38.8025 34.7505 38.6858 34.8647C38.5684 34.9816 38.4762 35.1203 38.4146 35.2726C38.2835 35.6095 38.2835 35.9818 38.4146 36.3187C38.4762 36.4711 38.5684 36.6098 38.6858 36.7268C38.8024 36.8412 38.9415 36.9312 39.0946 36.9918C39.4241 37.1175 39.7899 37.1175 40.1196 36.9918C40.2734 36.9316 40.4131 36.8414 40.5303 36.7268C40.6491 36.6104 40.7427 36.4716 40.8053 36.3189C40.9363 35.982 40.9363 35.6097 40.8053 35.2728C40.7427 35.1201 40.6491 34.9812 40.5303 34.8647C40.4131 34.7502 40.2733 34.6601 40.1196 34.5997C39.9568 34.5362 39.7829 34.5043 39.6075 34.5057M39.6075 33.6774C39.9104 33.6743 40.211 33.7293 40.492 33.8395C40.7542 33.9413 40.9933 34.0927 41.1955 34.2849C41.3947 34.4756 41.5527 34.7034 41.6603 34.9549C41.8842 35.494 41.8842 36.0973 41.6603 36.6365C41.5527 36.8881 41.3947 37.1163 41.1955 37.3073C40.9931 37.4992 40.754 37.6506 40.492 37.7528C39.923 37.9678 39.2924 37.9678 38.7233 37.7528C38.4623 37.6507 38.2244 37.4994 38.0233 37.3073C37.8253 37.1157 37.6681 36.8877 37.5605 36.6365C37.3366 36.0973 37.3366 35.494 37.5605 34.9549C37.6682 34.7023 37.8267 34.4734 38.0265 34.2819C38.2263 34.0903 38.4635 33.9398 38.724 33.8395C39.0052 33.7293 39.3056 33.6743 39.6085 33.6774M16.4001 35.7825C16.4001 35.0778 16.8725 34.4991 17.6451 34.4991C18.3831 34.4991 18.8813 35.053 18.8813 35.7825C18.8813 36.5119 18.3831 37.0648 17.6453 37.0648C16.8728 37.0648 16.4003 36.4871 16.4003 35.7825M19.7225 35.7825V33.7781H18.8303V34.2642C18.5463 33.9032 18.1179 33.6766 17.534 33.6766C16.384 33.6766 15.4823 34.5557 15.4823 35.7818C15.4823 37.0077 16.3823 37.8868 17.534 37.8868C18.1179 37.8868 18.5463 37.6602 18.8303 37.2992V37.786H19.7225V35.7818V35.7825ZM14.6923 37.7868V35.2713C14.6923 34.3237 14.0742 33.6864 13.0788 33.6778C12.5551 33.6693 12.0135 33.8284 11.6363 34.391C11.3533 33.9465 10.906 33.6778 10.2793 33.6778C9.84205 33.6778 9.41255 33.8036 9.07755 34.2729V33.7781H8.1853V37.7868H9.0853V35.5644C9.0853 34.8684 9.4803 34.4989 10.0895 34.4989C10.682 34.4989 10.9828 34.8762 10.9828 35.5558V37.7868H11.8828V35.5644C11.8828 34.8684 12.2955 34.4989 12.887 34.4989C13.4973 34.4989 13.789 34.8762 13.789 35.5558V37.7868H14.689H14.6923ZM42.8313 37.4851V37.5828H42.9251C42.9426 37.5834 42.9599 37.579 42.9751 37.5704C42.9815 37.5664 42.9866 37.5609 42.9901 37.5543C42.9935 37.5477 42.9952 37.5404 42.9948 37.533C42.9952 37.5257 42.9935 37.5186 42.9901 37.5121C42.9866 37.5057 42.9813 37.5004 42.9751 37.4966C42.9602 37.4875 42.9426 37.4831 42.9251 37.4842L42.8313 37.4851ZM42.9255 37.416C42.9655 37.4136 43.0051 37.4249 43.0375 37.4478C43.0505 37.4581 43.0609 37.4714 43.0677 37.4865C43.0745 37.5014 43.0776 37.5178 43.0768 37.5343C43.0774 37.5483 43.0748 37.5623 43.0694 37.5754C43.064 37.5885 43.0558 37.6002 43.0453 37.6099C43.0202 37.631 42.9888 37.6438 42.9558 37.6463L43.0808 37.7855H42.9846L42.8696 37.6473H42.8323V37.7855H42.7501V37.416H42.9255ZM42.9005 37.9123C42.9427 37.9126 42.9846 37.9044 43.0233 37.8879C43.0606 37.8721 43.0946 37.8497 43.1233 37.8217C43.1522 37.7937 43.1751 37.7605 43.1911 37.724C43.2074 37.6856 43.2158 37.6445 43.2158 37.603C43.2158 37.5614 43.2074 37.5203 43.1911 37.482C43.1748 37.4456 43.1519 37.4124 43.1233 37.3843C43.0947 37.3562 43.0608 37.3341 43.0233 37.319C42.9846 37.3026 42.9427 37.2943 42.9005 37.2946C42.8576 37.2943 42.8151 37.3026 42.7755 37.319C42.7373 37.3338 42.7025 37.356 42.6733 37.3843C42.6291 37.4287 42.5992 37.4846 42.5874 37.5454C42.5755 37.6062 42.5822 37.6691 42.6066 37.7262C42.6218 37.7628 42.6445 37.7961 42.6733 37.8239C42.7027 37.8522 42.7374 37.8746 42.7755 37.8901C42.8151 37.9065 42.8576 37.9148 42.9005 37.9145M42.9005 37.2062C42.956 37.2058 43.0109 37.2166 43.0618 37.238C43.1113 37.2577 43.1565 37.2867 43.1946 37.3234C43.2324 37.3596 43.2624 37.4026 43.2831 37.4502C43.3045 37.499 43.3155 37.5516 43.3155 37.6048C43.3155 37.6579 43.3045 37.7106 43.2831 37.7594C43.2622 37.8065 43.2322 37.8492 43.1946 37.8851C43.1563 37.9219 43.1112 37.9512 43.0618 37.9716C43.0109 37.993 42.956 38.0038 42.9005 38.0034C42.8455 38.0037 42.7911 37.9935 42.7402 37.9732C42.6892 37.9529 42.643 37.9231 42.6038 37.8853C42.5662 37.8494 42.5362 37.8067 42.5153 37.7596C42.4939 37.7108 42.483 37.6583 42.483 37.6052C42.483 37.5521 42.4939 37.4995 42.5153 37.4507C42.536 37.4031 42.566 37.36 42.6038 37.324C42.6417 37.2869 42.6868 37.2579 42.7366 37.2384C42.7884 37.2171 42.8442 37.2063 42.9005 37.2068" fill="#231F20"/>
</g>
<defs>
<clipPath id="clip0_4201_503">
<rect width="50" height="38" fill="white"/>
</clipPath>
</defs>
</svg>
